# xmcd
#
# Track frame offsets: 
#        150
#        34475
#        64135
#        107772
#        139975
#        176377
#        208120
#        239610
#
# Disc length: 3778 seconds
#
# Revision: 1
# Processed by: cddbd v1.5.2PL0 Copyright (c) Steve Scherf et al.
# Submitted via: ExactAudioCopy v0.99pb5
#
DISCID=790ec008
DTITLE=Chris Woods - Modus Operandi
DYEAR=1978
DGENRE=Jazz
TTITLE0=Modus Operandi
TTITLE1=Monsieur Le Bois In Paris
TTITLE2=What That
TTITLE3=My Lady
TTITLE4=Scuffin' along
TTITLE5=Modus Operandi (alt)
TTITLE6=Monsieur Le Bois In Paris (alt)
TTITLE7=What That (alt)
EXTD=
EXTT0=
EXTT1=
EXTT2=
EXTT3=
EXTT4=
EXTT5=
EXTT6=
EXTT7=
PLAYORDER=
